<svg xmlns="http://www.w3.org/2000/svg" xmlns:xlink="http://www.w3.org/1999/xlink" height="300px" width="300px" fill="#000000" version="1.1" x="0px" y="0px" viewBox="0 0 64 64" style="enable-background:new 0 0 64 64;background: red;" xml:space="preserve"><rect x="51" y="27" width="4" height="10" fill="white"/><rect x="45" y="27" width="7" height="17" fill="white"/><rect x="20" y="12" width="22" height="42" fill="white"/><circle cx="32" cy="18" r="2"/><path d="M61.225,18.025c-8.346-1.923-16.279-5.8-22.943-11.212L32,1.712l-6.281,5.102c-3.333,2.709-6.976,5.036-10.827,6.917  c-3.903,1.902-7.979,3.348-12.115,4.295l-1.002,0.229l2.217,8.575c3.907,15.148,13.935,28.283,27.513,36.038L32,63.151l0.496-0.283  c13.578-7.755,23.605-20.89,27.512-36.038l2.218-8.574L61.225,18.025z M35,29.48V34l3,3l-3,3l3,3l-3,3l3,3l-5,5v-6h-2v6l-3-3V29.05  c-2.96-1.47-5-4.52-5-8.05c0-4.97,4.03-9,9-9s9,4.03,9,9C41,24.92,38.49,28.24,35,29.48z M46.812,43.367l-1.623-1.168  c2.159-3,3.996-6.229,5.458-9.598l1.834,0.797C50.962,36.897,49.055,40.251,46.812,43.367z M53.316,31.36l-1.865-0.721  c0.37-0.959,0.717-1.948,1.031-2.941l1.906,0.604C54.062,29.334,53.701,30.362,53.316,31.36z"/><rect x="31" y="44" width="2" height="2"/><rect x="31" y="40" width="2" height="2"/><rect x="31" y="36" width="2" height="2"/></svg>